<svg width="130" height="130" viewBox="0 0 130 130" fill="none" xmlns="http://www.w3.org/2000/svg">
<path d="M116.476 107.204L110.671 34.0493C110.309 29.3363 106.323 25.6443 101.596 25.6443H90.1291V25.1288C90.1291 11.2727 78.8565 0 65.0003 0C51.1441 0 39.8714 11.2727 39.8714 25.1288V25.6443H28.4045C23.6775 25.6443 19.6915 29.3361 19.3309 34.0394L13.5236 107.214C13.0742 113.073 15.1067 118.906 19.0996 123.216C23.0925 127.527 28.7529 130 34.629 130H95.3713C101.247 130 106.908 127.527 110.901 123.216C114.894 118.905 116.926 113.073 116.476 107.204ZM47.4861 25.1288C47.4861 15.4715 55.3432 7.61465 65.0003 7.61465C74.6574 7.61465 82.5145 15.4718 82.5145 25.1288V25.6443H47.4861V25.1288ZM105.314 118.042C102.72 120.843 99.189 122.385 95.3713 122.385H34.6293C30.8116 122.385 27.2807 120.843 24.6863 118.042C22.0922 115.241 20.8242 111.602 21.1156 107.806L26.9225 34.6315C26.9814 33.8617 27.6324 33.2589 28.4045 33.2589H39.8714V42.637C39.8714 44.7396 41.5762 46.4443 43.6788 46.4443C45.7814 46.4443 47.4861 44.7396 47.4861 42.637V33.2589H82.5145V42.637C82.5145 44.7396 84.2192 46.4443 86.3218 46.4443C88.4244 46.4443 90.1291 44.7396 90.1291 42.637V33.2589H101.596C102.368 33.2589 103.019 33.862 103.079 34.6417L108.885 107.796C109.177 111.602 107.908 115.241 105.314 118.042Z" fill="#0C64D3"/>
<path opacity="0.2" fill-rule="evenodd" clip-rule="evenodd" d="M75.5251 94.4749C76.892 95.8417 79.108 95.8417 80.4749 94.4749C81.8417 93.108 81.8417 90.892 80.4749 89.5251L69.9497 79L80.4749 68.4749C81.8417 67.108 81.8417 64.892 80.4749 63.5251C79.108 62.1583 76.892 62.1583 75.5251 63.5251L65 74.0503L54.4749 63.5251C53.108 62.1583 50.892 62.1583 49.5251 63.5251C48.1583 64.892 48.1583 67.108 49.5251 68.4749L60.0503 79L49.5251 89.5251C48.1583 90.892 48.1583 93.108 49.5251 94.4749C50.892 95.8417 53.108 95.8417 54.4749 94.4749L65 83.9497L75.5251 94.4749Z" fill="#0B57B7"/>
</svg>
